<svg width="100" height="100" viewBox="0 0 100 100" fill="none" xmlns="http://www.w3.org/2000/svg">
<g clip-path="url(#clip0_140_46)">
<rect width="100" height="100" fill="white"/>
<rect width="50" height="50" fill="#FFCC4D"/>
<rect x="50" width="50" height="50" fill="#FFF3CF"/>
<rect y="50" width="50" height="50" fill="#FFF3CF"/>
<rect x="50" y="50" width="50" height="50" fill="#FFCC4D"/>
<path d="M26 9C16.059 9 8 15.268 8 23C8 27.368 10.574 31.268 14.604 33.835C14.08 36.144 12.859 39.569 10 43C15.758 42.04 19.439 39.239 21.716 36.584C23.092 36.846 24.521 37 26 37C35.941 37 44 30.732 44 23C44 15.268 35.941 9 26 9Z" fill="#BDDDF4"/>
<path d="M26 25C27.1046 25 28 24.1046 28 23C28 21.8954 27.1046 21 26 21C24.8954 21 24 21.8954 24 23C24 24.1046 24.8954 25 26 25Z" fill="#2A6797"/>
<path d="M34 25C35.1046 25 36 24.1046 36 23C36 21.8954 35.1046 21 34 21C32.8954 21 32 21.8954 32 23C32 24.1046 32.8954 25 34 25Z" fill="#2A6797"/>
<path d="M18 25C19.1046 25 20 24.1046 20 23C20 21.8954 19.1046 21 18 21C16.8954 21 16 21.8954 16 23C16 24.1046 16.8954 25 18 25Z" fill="#2A6797"/>
<path d="M62 72H86V74H62V72ZM77 87C77 89.208 76.208 91 74 91C71.791 91 71 89.208 71 87C71 84.792 71.791 85 74 85C76.208 85 77 84.792 77 87Z" fill="#292F33"/>
<path d="M74 88C67.373 88 64 89.343 64 91V93H84V91C84 89.343 80.627 88 74 88Z" fill="#66757F"/>
<path d="M74 57C69.029 57 65 61.029 65 66V73H83V66C83 61.029 78.971 57 74 57Z" fill="#99AAB5"/>
<path d="M71.5 61C72.3284 61 73 60.3284 73 59.5C73 58.6716 72.3284 58 71.5 58C70.6716 58 70 58.6716 70 59.5C70 60.3284 70.6716 61 71.5 61Z" fill="#292F33"/>
<path d="M76.5 61C77.3284 61 78 60.3284 78 59.5C78 58.6716 77.3284 58 76.5 58C75.6716 58 75 58.6716 75 59.5C75 60.3284 75.6716 61 76.5 61Z" fill="#292F33"/>
<path d="M73.5 65C74.3284 65 75 64.3284 75 63.5C75 62.6716 74.3284 62 73.5 62C72.6716 62 72 62.6716 72 63.5C72 64.3284 72.6716 65 73.5 65Z" fill="#292F33"/>
<path d="M78.5 65C79.3284 65 80 64.3284 80 63.5C80 62.6716 79.3284 62 78.5 62C77.6716 62 77 62.6716 77 63.5C77 64.3284 77.6716 65 78.5 65Z" fill="#292F33"/>
<path d="M68.5 65C69.3284 65 70 64.3284 70 63.5C70 62.6716 69.3284 62 68.5 62C67.6716 62 67 62.6716 67 63.5C67 64.3284 67.6716 65 68.5 65Z" fill="#292F33"/>
<path d="M71.5 69C72.3284 69 73 68.3284 73 67.5C73 66.6716 72.3284 66 71.5 66C70.6716 66 70 66.6716 70 67.5C70 68.3284 70.6716 69 71.5 69Z" fill="#292F33"/>
<path d="M66.5 69C67.3284 69 68 68.3284 68 67.5C68 66.6716 67.3284 66 66.5 66C65.6716 66 65 66.6716 65 67.5C65 68.3284 65.6716 69 66.5 69Z" fill="#292F33"/>
<path d="M76.5 69C77.3284 69 78 68.3284 78 67.5C78 66.6716 77.3284 66 76.5 66C75.6716 66 75 66.6716 75 67.5C75 68.3284 75.6716 69 76.5 69Z" fill="#292F33"/>
<path d="M81.5 69C82.3284 69 83 68.3284 83 67.5C83 66.6716 82.3284 66 81.5 66C80.6716 66 80 66.6716 80 67.5C80 68.3284 80.6716 69 81.5 69Z" fill="#292F33"/>
<path d="M73.5 73C74.3284 73 75 72.3284 75 71.5C75 70.6716 74.3284 70 73.5 70C72.6716 70 72 70.6716 72 71.5C72 72.3284 72.6716 73 73.5 73Z" fill="#292F33"/>
<path d="M78.5 73C79.3284 73 80 72.3284 80 71.5C80 70.6716 79.3284 70 78.5 70C77.6716 70 77 70.6716 77 71.5C77 72.3284 77.6716 73 78.5 73Z" fill="#292F33"/>
<path d="M68.5 73C69.3284 73 70 72.3284 70 71.5C70 70.6716 69.3284 70 68.5 70C67.6716 70 67 70.6716 67 71.5C67 72.3284 67.6716 73 68.5 73Z" fill="#292F33"/>
<path d="M65 72.062V74C65 78.971 69.029 83 74 83C78.971 83 83 78.971 83 74V72.062H65Z" fill="#66757F"/>
<path d="M86 71C85.447 71 85 71.448 85 72V74C85 80.074 80.075 85 74 85C67.925 85 63 80.074 63 74V72C63 71.448 62.552 71 62 71C61.448 71 61 71.448 61 72V74C61 81.18 66.82 87 74 87C81.18 87 87 81.18 87 74V72C87 71.448 86.553 71 86 71Z" fill="#66757F"/>
<path d="M90.8228 23C90.8228 31.834 83.6568 39 74.8228 39C65.9868 39 58.8228 31.834 58.8228 23C58.8228 14.164 65.9868 7 74.8228 7C83.6568 7 90.8228 14.164 90.8228 23Z" fill="#FFCC4D"/>
<path d="M82.6838 23.129C82.5338 22.968 82.3098 22.958 82.1488 23.1C82.1158 23.129 78.8458 26 74.8228 26C70.8098 26 67.5298 23.129 67.4968 23.1C67.3348 22.958 67.1118 22.97 66.9618 23.129C66.8128 23.289 66.7798 23.553 66.8828 23.757C66.9908 23.972 69.5918 29 74.8228 29C80.0538 29 82.6558 23.972 82.7628 23.757C82.8658 23.552 82.8328 23.289 82.6838 23.129Z" fill="#664500"/>
<path d="M70.2158 30.154L68.6768 27.935C68.6768 27.935 68.1338 27.068 67.2658 27.61C66.3988 28.151 66.9418 29.019 66.9418 29.019L68.6998 32.399C68.6998 32.399 68.8438 33.167 67.7818 32.308C67.3188 31.934 67.5848 32.145 67.5848 32.145L67.1448 31.784L61.6538 27.276C61.6538 27.276 60.9448 26.528 60.2948 27.318C59.6468 28.109 60.5178 28.659 60.5178 28.659L65.7108 32.925C65.5908 33.045 65.2288 33.459 65.1108 33.588L59.5538 29.028C59.5538 29.028 58.8438 28.279 58.1958 29.069C57.5458 29.86 58.4178 30.41 58.4178 30.41L63.9728 34.972C63.8698 35.112 63.6098 35.448 63.5138 35.586L58.7218 31.652C58.7218 31.652 58.0118 30.904 57.3638 31.694C56.7128 32.485 57.5858 33.036 57.5858 33.036L62.6798 37.22C62.6158 37.398 62.3168 37.866 62.2698 38.04L58.5978 35.028C58.5978 35.028 57.8888 34.276 57.2408 35.069C56.5908 35.86 57.4628 36.41 57.4628 36.41L63.3928 41.278L63.7878 41.604C66.4078 43.755 70.2768 43.375 72.4278 40.755C74.3988 38.352 74.2448 34.902 72.1878 32.686C71.4588 31.904 70.8278 31.033 70.2158 30.154ZM92.4058 35.07C91.7578 34.277 91.0488 35.029 91.0488 35.029L87.3768 38.041C87.3298 37.867 87.0308 37.398 86.9668 37.221L92.0608 33.037C92.0608 33.037 92.9338 32.486 92.2838 31.695C91.6358 30.905 90.9258 31.653 90.9258 31.653L86.1338 35.587C86.0378 35.448 85.7768 35.112 85.6748 34.973L91.2298 30.411C91.2298 30.411 92.1028 29.861 91.4528 29.07C90.8048 28.28 90.0958 29.029 90.0958 29.029L84.5378 33.589C84.4208 33.46 84.0588 33.046 83.9378 32.926L89.1308 28.66C89.1308 28.66 90.0008 28.11 89.3538 27.319C88.7038 26.529 87.9948 27.277 87.9948 27.277L82.5038 31.785L82.0648 32.146C82.0648 32.146 83.0548 31.305 81.8678 32.309C80.6798 33.313 80.9498 32.4 80.9498 32.4L82.7078 29.02C82.7078 29.02 83.2508 28.152 82.3838 27.611C81.5148 27.069 80.9728 27.936 80.9728 27.936L79.4348 30.155C78.8218 31.034 78.1908 31.905 77.4608 32.688C75.4028 34.905 75.2488 38.354 77.2218 40.757C79.3718 43.377 83.2418 43.757 85.8618 41.606L86.2578 41.28L92.1878 36.412C92.1828 36.411 93.0548 35.861 92.4058 35.07Z" fill="#F4900C"/>
<path d="M84.4998 17.983C84.4488 17.861 83.2148 15 80.6788 15C78.1448 15 76.9108 17.861 76.8598 17.983C76.7798 18.171 76.8318 18.389 76.9828 18.519C77.1318 18.647 77.3478 18.651 77.5058 18.531C77.5158 18.522 78.5868 17.715 80.6788 17.715C82.7578 17.715 83.8278 18.512 83.8528 18.531C83.9278 18.59 84.0178 18.62 84.1078 18.62C84.2028 18.62 84.2968 18.586 84.3748 18.521C84.5278 18.392 84.5798 18.171 84.4998 17.983ZM73.4998 17.983C73.4478 17.861 72.2148 15 69.6788 15C67.1448 15 65.9108 17.861 65.8588 17.983C65.7798 18.171 65.8308 18.389 65.9828 18.519C66.1328 18.647 66.3488 18.651 66.5058 18.531C66.5168 18.522 67.5868 17.715 69.6788 17.715C71.7588 17.715 72.8278 18.512 72.8518 18.531C72.9278 18.59 73.0168 18.62 73.1068 18.62C73.2018 18.62 73.2958 18.586 73.3738 18.521C73.5278 18.392 73.5788 18.171 73.4998 17.983Z" fill="#664500"/>
<path d="M68.0048 32.478C68.0048 32.478 65.4118 35.792 68.4888 39.938C68.7008 40.223 69.2388 40.084 69.0098 39.75C68.7598 39.386 66.2598 35.854 68.6098 32.693C68.6098 32.693 68.2288 32.646 68.0048 32.478ZM81.5878 32.576C81.5878 32.576 84.1818 35.89 81.1038 40.036C80.8918 40.321 80.3538 40.182 80.5828 39.848C80.8328 39.484 83.3328 35.952 80.9828 32.791C80.9818 32.792 81.3638 32.745 81.5878 32.576Z" fill="#B55005"/>
<path d="M44 75C44 84.941 35.941 93 26 93C16.06 93 8 84.941 8 75C8 65.06 16.06 57 26 57C35.941 57 44 65.06 44 75Z" fill="#FFCC4D"/>
<path d="M37 85C39.7614 85 42 82.7614 42 80C42 77.2386 39.7614 75 37 75C34.2386 75 32 77.2386 32 80C32 82.7614 34.2386 85 37 85Z" fill="#FF7892"/>
<path d="M15 85C17.7614 85 20 82.7614 20 80C20 77.2386 17.7614 75 15 75C12.2386 75 10 77.2386 10 80C10 82.7614 12.2386 85 15 85Z" fill="#FF7892"/>
<path d="M32.5 79C35.5376 79 38 76.5376 38 73.5C38 70.4624 35.5376 68 32.5 68C29.4624 68 27 70.4624 27 73.5C27 76.5376 29.4624 79 32.5 79Z" fill="#F5F8FA"/>
<path d="M19.5 79C22.5376 79 25 76.5376 25 73.5C25 70.4624 22.5376 68 19.5 68C16.4624 68 14 70.4624 14 73.5C14 76.5376 16.4624 79 19.5 79Z" fill="#F5F8FA"/>
<path d="M19.5 76C20.8807 76 22 74.8807 22 73.5C22 72.1193 20.8807 71 19.5 71C18.1193 71 17 72.1193 17 73.5C17 74.8807 18.1193 76 19.5 76Z" fill="#292F33"/>
<path d="M32.5 76C33.8807 76 35 74.8807 35 73.5C35 72.1193 33.8807 71 32.5 71C31.1193 71 30 72.1193 30 73.5C30 74.8807 31.1193 76 32.5 76Z" fill="#292F33"/>
<path d="M30 87H22C21.448 87 21 86.553 21 86C21 85.447 21.448 85 22 85H30C30.553 85 31 85.447 31 86C31 86.553 30.553 87 30 87ZM38.001 68C37.696 68 37.397 67.862 37.2 67.6C34.56 64.079 31.139 64.002 30.994 64C30.444 63.994 30 63.544 30.003 62.995C30.006 62.444 30.45 62 31 62C31.184 62 35.537 62.05 38.8 66.4C39.132 66.842 39.042 67.469 38.6 67.8C38.42 67.935 38.21 68 38.001 68ZM13.999 68C13.791 68 13.58 67.935 13.4 67.8C12.958 67.469 12.869 66.842 13.2 66.4C16.462 62.05 20.816 62 21 62C21.552 62 22 62.448 22 63C22 63.551 21.555 63.998 21.004 64C20.849 64.002 17.436 64.086 14.8 67.6C14.604 67.862 14.303 68 13.999 68Z" fill="#664500"/>
</g>
<defs>
<clipPath id="clip0_140_46">
<rect width="100" height="100" fill="white"/>
</clipPath>
</defs>
</svg>
